<svg width="70" height="70" viewBox="0 0 70 70" fill="none" xmlns="http://www.w3.org/2000/svg">
<path fill-rule="evenodd" clip-rule="evenodd" d="M59.763 61.2456C58.4792 63.3601 57.1954 64.946 55.6473 66.4181C53.9103 67.9662 53.4195 69.3256 49.417 69.8547C46.585 70.3834 44.1307 69.3256 43.1867 68.9107C40.3547 67.5886 38.8816 67.1738 37.183 67.1738C35.5215 67.1738 34.1245 67.5892 31.3303 68.873C30.4618 69.3256 28.1207 70.3456 25.251 69.817C22.3058 69.2883 20.7954 68.1556 19.7004 67.2116C17.4348 65.2103 15.7357 63.3224 14.1875 61.1323L59.763 61.2456Z" fill="#1E71B8"/>
<path fill-rule="evenodd" clip-rule="evenodd" d="M7.80673 26.0161C9.12831 23.0331 10.8652 21.0319 12.6022 19.6348C17.02 16.0099 24.232 15.7833 27.5549 16.6518C30.2735 17.3315 32.1993 18.9929 35.2578 18.9929C38.4673 18.9929 40.317 17.3692 42.8474 16.6518C46.1702 15.8211 53.42 16.0854 58.1399 19.7103C59.537 20.7676 60.8203 22.2024 61.5377 22.9954C59.8391 24.2414 58.819 25.1477 57.9883 26.0161H7.80673Z" fill="#6FB353"/>
<path fill-rule="evenodd" clip-rule="evenodd" d="M57.9889 26.0161C57.1959 26.8846 56.6295 27.7153 55.9876 28.8858C55.2329 30.2452 54.3262 32.0954 54.0996 34.8896H5.57892C5.61668 34.4364 5.65444 33.9456 5.72996 33.4547C6.18307 30.4717 6.90049 28.0174 7.80672 26.0161H57.9889Z" fill="#FFF22D"/>
<path fill-rule="evenodd" clip-rule="evenodd" d="M54.0996 34.8896C54.0619 35.7451 54.0619 36.6018 54.0996 37.4573C54.2129 39.534 54.9304 41.8374 55.8743 43.6876L6.52291 43.5743C5.84324 40.5913 5.46565 37.5328 5.57893 34.8896H54.0996Z" fill="#E0922F"/>
<path fill-rule="evenodd" clip-rule="evenodd" d="M55.8738 43.6875C56.2602 44.4888 56.7284 45.248 57.2709 45.9531C60.5182 50.1066 61.9153 50.1066 64.4452 51.3904C64.2569 51.843 64.1059 52.2589 63.9166 52.6365L9.39263 52.5232C8.33537 50.2199 7.24035 46.9726 6.52292 43.5742L55.8738 43.6875Z" fill="#CC2229"/>
<path fill-rule="evenodd" clip-rule="evenodd" d="M63.9165 52.6365C62.3312 56.3369 61.0468 59.055 59.763 61.2456L14.188 61.1323C12.6777 58.9045 11.3183 56.4496 9.7702 53.3911C9.65692 53.1268 9.50589 52.8247 9.39261 52.5232L63.9165 52.6365Z" fill="#5A308D"/>
<path fill-rule="evenodd" clip-rule="evenodd" d="M48.0954 5.36182C47.8311 7.24979 46.8871 9.66638 45.3767 11.2145C43.7526 12.9514 41.2232 14.8394 39.7123 15.7834C38.8816 16.312 36.7293 16.3875 34.9552 16.5763C34.7286 14.9904 34.6908 13.6311 35.1817 12.1585C35.8236 10.4216 36.6549 7.92946 37.9759 6.19253C39.5996 4.04025 41.4498 2.56763 42.4693 2.039C43.8291 1.35934 46.0947 0.339834 48.0576 0C48.1337 1.73693 48.398 3.70041 48.0954 5.36182Z" fill="#6FB353"/>
</svg>
